<?xml version="1.0" standalone="no"?>
<!DOCTYPE svg PUBLIC "-//W3C//DTD SVG 20010904//EN"
 "http://www.w3.org/TR/2001/REC-SVG-20010904/DTD/svg10.dtd">
<svg version="1.0" xmlns="http://www.w3.org/2000/svg"
 width="500.000000pt" height="500.000000pt" viewBox="0 0 500.000000 500.000000"
 preserveAspectRatio="xMidYMid meet">
<metadata>
Created by potrace 1.14, written by Peter Selinger 2001-2017
</metadata>
<g transform="translate(0.000000,500.000000) scale(0.100000,-0.100000)"
fill="#000000" stroke="none">
<path d="M650 4985 c-337 -68 -587 -329 -639 -665 -9 -56 -11 -536 -9 -1865 3
-1639 4 -1795 20 -1845 33 -110 60 -170 108 -243 113 -174 269 -285 485 -345
55 -16 212 -17 1885 -17 1673 0 1830 1 1885 17 216 60 372 171 485 345 50 76
79 142 108 248 16 55 17 212 17 1885 0 1673 -1 1830 -17 1885 -60 216 -171
372 -345 485 -73 48 -133 75 -243 108 -50 16 -205 17 -1865 19 -1466 1 -1822
-1 -1875 -12z m2283 -868 c198 -52 389 -167 533 -319 205 -217 303 -473 304
-793 0 -494 -265 -869 -694 -981 -112 -30 -230 -44 -403 -51 l-173 -6 0 426 0
427 28 0 c50 0 145 30 180 57 51 39 76 102 69 179 -9 118 -73 174 -199 174
-94 0 -144 -28 -183 -105 l-30 -59 -3 -1103 -2 -1103 -480 0 -480 0 0 1058 c0
1083 3 1196 40 1365 94 431 462 759 955 851 58 11 129 14 260 12 155 -3 194
-7 278 -29z m-311 -2824 c10 -9 18 -25 18 -36 0 -26 -28 -57 -52 -57 -22 0
-58 34 -58 55 0 20 36 55 57 55 9 0 25 -7 35 -17z m390 0 c10 -9 18 -25 18
-36 0 -26 -28 -57 -52 -57 -22 0 -58 34 -58 55 0 20 36 55 57 55 9 0 25 -7 35
-17z m1380 0 c10 -9 18 -25 18 -36 0 -26 -28 -57 -52 -57 -22 0 -58 34 -58 55
0 20 36 55 57 55 9 0 25 -7 35 -17z m-1202 -68 c0 -52 1 -55 25 -55 24 0 25
-3 25 -55 0 -52 -1 -55 -25 -55 -38 0 -33 -48 8 -63 13 -5 17 -18 17 -62 0
-64 -8 -67 -78 -35 -67 31 -82 73 -82 243 l0 137 55 0 55 0 0 -55z m550 -5 l0
-61 33 6 c86 16 117 -33 117 -185 l0 -100 -55 0 -55 0 0 91 c0 81 -2 90 -17
87 -15 -3 -18 -17 -21 -91 l-3 -87 -54 0 -55 0 0 200 0 200 55 0 55 0 0 -60z
m-1100 -195 l0 -145 -55 0 -55 0 0 145 0 145 55 0 55 0 0 -145z m240 87 c0
-46 -4 -60 -20 -70 -12 -7 -20 -23 -20 -38 0 -35 -28 -92 -54 -109 -12 -8 -40
-17 -63 -21 l-43 -7 0 54 c0 47 3 56 23 64 17 8 23 21 28 61 4 28 12 61 18 73
14 26 63 50 104 51 26 0 27 -1 27 -58z m150 -87 l0 -145 -55 0 -55 0 0 145 0
145 55 0 55 0 0 -145z m469 123 c44 -23 82 -71 67 -85 -4 -4 -44 -8 -89 -8
-82 0 -82 0 -85 -27 -3 -22 2 -29 23 -34 15 -4 36 -2 48 4 12 6 44 12 70 14
46 3 48 2 42 -21 -32 -126 -220 -147 -280 -31 -39 76 2 176 81 200 48 14 78
11 123 -12z m681 -6 c44 -32 60 -78 60 -174 l0 -88 -55 0 -55 0 0 79 c0 88
-11 108 -56 97 -20 -5 -25 -12 -22 -34 2 -21 9 -28 31 -30 26 -3 27 -6 27 -58
0 -60 -4 -62 -71 -44 -129 36 -131 229 -3 270 40 13 114 3 144 -18z m230 -117
l0 -145 -55 0 -55 0 0 145 0 145 55 0 55 0 0 -145z"/>
</g>
</svg>
